<svg xmlns="http://www.w3.org/2000/svg" width="62.105" height="55.895" viewBox="0 0 62.105 55.895">
  <path id="bullhorn" d="M60.207,7.518C58.412,2.13,56.027,1,54.341,1c-.034,0-.071,0-.109,0-1.717.037-4.769.928-9.34,2.27-9.576,2.8-24.046,7.045-38.683,7.045C2.669,10.318,0,14.991,0,21.186s2.67,10.868,6.21,10.868c1.146,0,2.292.025,3.431.075l5.173,20.58a5.746,5.746,0,0,0,5.369,4.186h4.077a3.446,3.446,0,0,0,3.316-5.018l-8-18.78a185.692,185.692,0,0,1,25.319,6c4.571,1.338,7.623,2.233,9.34,2.27.037,0,.071,0,.109,0,1.683,0,4.068-1.13,5.866-6.518a44.942,44.942,0,0,0,1.9-13.665,44.942,44.942,0,0,0-1.9-13.665ZM49.683,21.183c0-1.593.068-3.152.2-4.645,1.593.161,2.906,2.223,2.906,4.645s-1.31,4.487-2.906,4.645C49.752,24.335,49.683,22.776,49.683,21.183Zm-46.576,0c0-4.738,1.838-7.763,3.105-7.763a90.969,90.969,0,0,0,10.458-.633,28.774,28.774,0,0,0-1.143,8.4,28.669,28.669,0,0,0,1.143,8.4,90.968,90.968,0,0,0-10.458-.633C4.945,28.946,3.107,25.921,3.107,21.183ZM24.722,53.091a.742.742,0,0,1,.081.553.742.742,0,0,1-.54.143H20.185a2.671,2.671,0,0,1-2.357-1.838L12.9,32.327c1.04.084,2.077.183,3.105.3ZM20.151,30.042a23.438,23.438,0,0,1-1.518-8.859,23.015,23.015,0,0,1,1.515-8.856A188.346,188.346,0,0,0,45.765,6.251c1.289-.379,2.518-.739,3.636-1.053a20.244,20.244,0,0,0-.925,2.319,44.942,44.942,0,0,0-1.9,13.665,44.942,44.942,0,0,0,1.9,13.665,20.242,20.242,0,0,0,.925,2.319c-1.118-.314-2.347-.674-3.636-1.053a188.926,188.926,0,0,0-25.617-6.077ZM57.26,33.867c-1.158,3.478-2.416,4.394-2.919,4.394s-1.761-.919-2.919-4.394a30.888,30.888,0,0,1-1.164-4.956,5.845,5.845,0,0,0,3.962-2.406,8.9,8.9,0,0,0,1.674-5.322,8.91,8.91,0,0,0-1.674-5.322,5.845,5.845,0,0,0-3.962-2.406A31.651,31.651,0,0,1,51.422,8.5c1.158-3.478,2.416-4.4,2.919-4.4S56.1,5.021,57.26,8.5A41.8,41.8,0,0,1,59,21.18,41.8,41.8,0,0,1,57.26,33.864Z" transform="translate(0.001 -1)"/>
</svg>
