<svg xmlns="http://www.w3.org/2000/svg" width="49.126" height="44.213" viewBox="0 0 49.126 44.213">
  <defs>
    <style>
      .cls-1 {
        fill: #fff;
      }
    </style>
  </defs>
  <path id="bullhorn" class="cls-1" d="M47.624,6.155C46.2,1.894,44.318,1,42.984,1c-.027,0-.056,0-.086,0-1.358.029-3.773.734-7.388,1.8C27.935,5.016,16.49,8.371,4.911,8.371c-2.8,0-4.912,3.7-4.912,8.6s2.112,8.6,4.912,8.6c.906,0,1.813.02,2.714.059L11.717,41.9a4.545,4.545,0,0,0,4.247,3.311h3.225a2.726,2.726,0,0,0,2.623-3.969l-6.33-14.855A146.885,146.885,0,0,1,35.51,31.135c3.615,1.059,6.03,1.766,7.388,1.8l.086,0c1.331,0,3.218-.894,4.64-5.155a35.55,35.55,0,0,0,1.5-10.81,35.55,35.55,0,0,0-1.5-10.81ZM39.3,16.965c0-1.26.054-2.493.157-3.674,1.26.128,2.3,1.759,2.3,3.674s-1.037,3.549-2.3,3.674C39.354,19.458,39.3,18.225,39.3,16.965Zm-36.842,0c0-3.748,1.454-6.14,2.456-6.14a71.958,71.958,0,0,0,8.272-.5,22.76,22.76,0,0,0-.9,6.641,22.678,22.678,0,0,0,.9,6.641,71.957,71.957,0,0,0-8.272-.5C3.912,23.105,2.458,20.713,2.458,16.965Zm17.1,25.24a.587.587,0,0,1,.064.437.587.587,0,0,1-.427.113H15.967A2.113,2.113,0,0,1,14.1,41.3L10.2,25.78c.823.066,1.643.145,2.456.238l6.9,16.186ZM15.939,23.972a18.54,18.54,0,0,1-1.2-7.007,18.2,18.2,0,0,1,1.2-7A148.985,148.985,0,0,0,36.2,5.153c1.019-.3,1.992-.585,2.876-.833a16.012,16.012,0,0,0-.732,1.835,35.55,35.55,0,0,0-1.5,10.81,35.55,35.55,0,0,0,1.5,10.81,16.011,16.011,0,0,0,.732,1.835c-.884-.248-1.857-.533-2.876-.833A149.443,149.443,0,0,0,15.937,23.97ZM45.293,27c-.916,2.751-1.911,3.475-2.309,3.475S41.592,29.747,40.676,27a24.433,24.433,0,0,1-.921-3.92,4.623,4.623,0,0,0,3.134-1.9,7.037,7.037,0,0,0,1.324-4.21,7.048,7.048,0,0,0-1.324-4.21,4.623,4.623,0,0,0-3.134-1.9,25.035,25.035,0,0,1,.921-3.92c.916-2.751,1.911-3.478,2.309-3.478s1.393.727,2.309,3.475a33.064,33.064,0,0,1,1.375,10.033A33.064,33.064,0,0,1,45.293,27Z" transform="translate(0.001 -1)"/>
</svg>
