<svg xmlns="http://www.w3.org/2000/svg" width="74.631" height="67.168" viewBox="0 0 74.631 67.168">
  <g id="Group_393" data-name="Group 393" transform="translate(-1001.291 -1331)">
    <path id="Path_55" data-name="Path 55" d="M69.033,4.732H59.7V2.866a1.866,1.866,0,0,0-3.732,0V4.732H18.658V2.866a1.866,1.866,0,1,0-3.732,0V4.732H5.6a5.6,5.6,0,0,0-5.6,5.6V62.57a5.6,5.6,0,0,0,5.6,5.6H69.033a5.6,5.6,0,0,0,5.6-5.6V10.329A5.6,5.6,0,0,0,69.033,4.732ZM5.6,8.463h9.329v5.6a1.866,1.866,0,0,0,3.732,0v-5.6H55.973v5.6a1.866,1.866,0,0,0,3.732,0v-5.6h9.329A1.866,1.866,0,0,1,70.9,10.329v9.329H3.732V10.329A1.866,1.866,0,0,1,5.6,8.463ZM69.033,64.436H5.6A1.866,1.866,0,0,1,3.732,62.57V23.389H70.9V62.57A1.866,1.866,0,0,1,69.033,64.436Z" transform="translate(1001.291 1330)"/>
    <path id="Path_56" data-name="Path 56" d="M11.6,12.732H7.866A1.866,1.866,0,1,1,7.866,9H11.6a1.866,1.866,0,1,1,0,3.732Z" transform="translate(1017.681 1353)"/>
    <path id="Path_57" data-name="Path 57" d="M14.6,12.732H10.866a1.866,1.866,0,0,1,0-3.732H14.6a1.866,1.866,0,1,1,0,3.732Z" transform="translate(1025.875 1353)"/>
    <path id="Path_58" data-name="Path 58" d="M17.6,12.732H13.866a1.866,1.866,0,1,1,0-3.732H17.6a1.866,1.866,0,1,1,0,3.732Z" transform="translate(1034.069 1353)"/>
    <path id="Path_59" data-name="Path 59" d="M20.6,12.732H16.866a1.866,1.866,0,0,1,0-3.732H20.6a1.866,1.866,0,1,1,0,3.732Z" transform="translate(1042.265 1353)"/>
    <path id="Path_60" data-name="Path 60" d="M8.6,14.732H4.866a1.866,1.866,0,0,1,0-3.732H8.6a1.866,1.866,0,0,1,0,3.732Z" transform="translate(1009.486 1361.731)"/>
    <path id="Path_61" data-name="Path 61" d="M11.6,14.732H7.866a1.866,1.866,0,0,1,0-3.732H11.6a1.866,1.866,0,0,1,0,3.732Z" transform="translate(1017.681 1361.731)"/>
    <path id="Path_62" data-name="Path 62" d="M14.6,14.732H10.866a1.866,1.866,0,0,1,0-3.732H14.6a1.866,1.866,0,0,1,0,3.732Z" transform="translate(1025.875 1361.731)"/>
    <path id="Path_63" data-name="Path 63" d="M17.6,14.732H13.866a1.866,1.866,0,0,1,0-3.732H17.6a1.866,1.866,0,1,1,0,3.732Z" transform="translate(1034.069 1361.731)"/>
    <path id="Path_64" data-name="Path 64" d="M20.6,14.732H16.866a1.866,1.866,0,0,1,0-3.732H20.6a1.866,1.866,0,1,1,0,3.732Z" transform="translate(1042.265 1361.731)"/>
    <path id="Path_65" data-name="Path 65" d="M8.6,16.732H4.866a1.866,1.866,0,1,1,0-3.732H8.6a1.866,1.866,0,1,1,0,3.732Z" transform="translate(1009.486 1367.194)"/>
    <path id="Path_66" data-name="Path 66" d="M11.6,16.732H7.866a1.866,1.866,0,1,1,0-3.732H11.6a1.866,1.866,0,1,1,0,3.732Z" transform="translate(1017.681 1367.194)"/>
    <path id="Path_67" data-name="Path 67" d="M14.6,16.732H10.866a1.866,1.866,0,1,1,0-3.732H14.6a1.866,1.866,0,1,1,0,3.732Z" transform="translate(1025.875 1367.194)"/>
    <path id="Path_68" data-name="Path 68" d="M17.6,16.732H13.866a1.866,1.866,0,1,1,0-3.732H17.6a1.866,1.866,0,1,1,0,3.732Z" transform="translate(1034.069 1367.194)"/>
    <path id="Path_69" data-name="Path 69" d="M20.6,16.732H16.866a1.866,1.866,0,1,1,0-3.732H20.6a1.866,1.866,0,1,1,0,3.732Z" transform="translate(1042.265 1367.194)"/>
    <path id="Path_70" data-name="Path 70" d="M8.6,18.732H4.866a1.866,1.866,0,1,1,0-3.732H8.6a1.866,1.866,0,1,1,0,3.732Z" transform="translate(1009.486 1372.657)"/>
    <path id="Path_71" data-name="Path 71" d="M11.6,18.732H7.866a1.866,1.866,0,1,1,0-3.732H11.6a1.866,1.866,0,1,1,0,3.732Z" transform="translate(1017.681 1372.657)"/>
    <path id="Path_72" data-name="Path 72" d="M14.6,18.732H10.866a1.866,1.866,0,0,1,0-3.732H14.6a1.866,1.866,0,1,1,0,3.732Z" transform="translate(1025.875 1372.657)"/>
    <path id="Path_73" data-name="Path 73" d="M17.6,18.732H13.866a1.866,1.866,0,1,1,0-3.732H17.6a1.866,1.866,0,1,1,0,3.732Z" transform="translate(1034.069 1372.657)"/>
    <path id="Path_74" data-name="Path 74" d="M20.6,18.732H16.866a1.866,1.866,0,0,1,0-3.732H20.6a1.866,1.866,0,1,1,0,3.732Z" transform="translate(1042.265 1372.657)"/>
  </g>
</svg>
