<svg id="layers" xmlns="http://www.w3.org/2000/svg" width="54.747" height="41.059" viewBox="0 0 54.747 41.059">
  <defs>
    <style>
      .cls-1 {
        fill: #fff;
      }
    </style>
  </defs>
  <path id="Path_209" data-name="Path 209" class="cls-1" d="M27.373,27.636a1.373,1.373,0,0,1-.531-.107L.838,16.58a1.369,1.369,0,0,1,0-2.524l26-10.949a1.374,1.374,0,0,1,1.062,0l26,10.949a1.369,1.369,0,0,1,0,2.524l-26,10.949A1.373,1.373,0,0,1,27.373,27.636ZM4.894,15.318l22.479,9.463,22.479-9.463L27.373,5.855,4.894,15.318Z" transform="translate(0 -3)"/>
  <path id="Path_210" data-name="Path 210" class="cls-1" d="M27.373,23.687a1.373,1.373,0,0,1-.531-.107l-26-10.949A1.369,1.369,0,1,1,1.9,10.107L27.373,20.832,52.846,10.107a1.369,1.369,0,1,1,1.062,2.524L27.9,23.58A1.373,1.373,0,0,1,27.373,23.687Z" transform="translate(0 9.161)"/>
  <path id="Path_211" data-name="Path 211" class="cls-1" d="M27.373,26.687a1.373,1.373,0,0,1-.531-.107l-26-10.949A1.369,1.369,0,1,1,1.9,13.107L27.373,23.832,52.846,13.107a1.369,1.369,0,1,1,1.062,2.524L27.9,26.58A1.373,1.373,0,0,1,27.373,26.687Z" transform="translate(0 14.372)"/>
</svg>
