<svg xmlns="http://www.w3.org/2000/svg" width="65.605" height="61.079" viewBox="0 0 65.605 61.079">
  <path id="location" d="M27.883,61.079a1.851,1.851,0,0,1-.426-.052,1.552,1.552,0,0,1-1.214-1.475V36.647H1.641a1.628,1.628,0,0,1-1.584-1.13A1.485,1.485,0,0,1,.817,33.8L63.143.206a1.735,1.735,0,0,1,1.981.241,1.447,1.447,0,0,1,.259,1.845L29.3,60.319a1.669,1.669,0,0,1-1.42.76ZM7.749,33.593H27.883a1.587,1.587,0,0,1,1.64,1.527V53.866L59.466,5.715,7.749,33.593Z" transform="translate(0 -0.001)"/>
</svg>
